<?xml version="1.0" encoding="utf-8"?><svg version="1.1" id="Layer_1" xmlns="http://www.w3.org/2000/svg" xmlns:xlink="http://www.w3.org/1999/xlink" x="0px" y="0px" viewBox="0 0 122.88 88.9" style="enable-background:new 0 0 122.88 88.9" xml:space="preserve"><style type="text/css">.st0{fill-rule:evenodd;clip-rule:evenodd;}</style><g><path class="st0" d="M102.87,88.9v-1.98h-56.5c-6.11,0-6.4-12.25,0-12.25h4.46h65.92c0.41,0,0.75,0.35,0.75,0.75v10.75 c0,0.4-0.34,0.75-0.75,0.75h-3.38v1.98H102.87L102.87,88.9z M0,88.9V50.29c0-4.29,2.12-8.1,5.36-10.45 c4.46-3.23,16.9-3.52,21.63-0.79c5.03,2.9,5.01,9,9.35,13.24c5.81,5.68,4.35,6.33,12.27,6.33h15.87c14.15,0,6.54,13.76-1.83,13.33 H48.21c-6.99,0-7.58,1.12-13.35-2.72L34.55,88.9H0L0,88.9z M78.15,72.03c-2.04,0-3.7-1.66-3.7-3.7c0-2.04,1.66-3.7,3.7-3.7h25.01 l12.73-25.91c0.89-1.83,3.1-2.58,4.92-1.69c1.83,0.89,2.58,3.1,1.69,4.92l-13.6,27.68c-0.53,1.39-1.88,2.38-3.46,2.38H78.15 L78.15,72.03z M25.67,0c9.75,0,17.65,7.9,17.65,17.65c0,9.75-7.9,17.65-17.65,17.65c-9.75,0-17.65-7.9-17.65-17.65 C8.02,7.9,15.92,0,25.67,0L25.67,0z"/></g></svg>